<svg xmlns="http://www.w3.org/2000/svg">
  <symbol id="shared-worktree" viewBox="0 0 24 24"><circle cx="8" cy="8" r="3"/><circle cx="17" cy="9" r="2.5"/><path d="M2.5 19c.5-4 2.4-6 5.5-6s5 2 5.5 6M13 18c.4-3 1.8-4.5 4-4.5 2.5 0 3.8 1.7 4.2 5"/></symbol>
  <symbol id="file-overlap" viewBox="0 0 24 24"><path d="M5 3h9l5 5v13H5zM14 3v5h5"/><path d="M8 12h8M8 16h8"/><path d="M3 9l-2 2 2 2M21 13l2-2-2-2"/></symbol>
  <symbol id="decision-needed" viewBox="0 0 24 24"><path d="M12 2l10 10-10 10L2 12z"/><path d="M9.8 9a2.5 2.5 0 1 1 3.2 2.4c-.8.3-1 .8-1 1.6M12 17h.01"/></symbol>
  <symbol id="blocker" viewBox="0 0 24 24"><path d="M8 2h8l6 6v8l-6 6H8l-6-6V8z"/><path d="M8 8l8 8M16 8l-8 8"/></symbol>
  <symbol id="handoff" viewBox="0 0 24 24"><path d="M3 7h13M12 3l4 4-4 4M21 17H8M12 13l-4 4 4 4"/></symbol>
</svg>
